<?xml version="1.0" standalone="no"?> <!DOCTYPE svg PUBLIC "-//W3C//DTD SVG 20010904//EN" "http://www.w3.org/TR/2001/REC-SVG-20010904/DTD/svg10.dtd"> <svg version="1.0" xmlns="http://www.w3.org/2000/svg" width="600.000000pt" height="600.000000pt" viewBox="0 0 600.000000 600.000000" preserveAspectRatio="xMidYMid meet"> <g transform="translate(0.000000,600.000000) scale(0.100000,-0.100000)" fill="#ffffff" stroke="none"> <path d="M2462 3579 c-72 -36 -134 -129 -101 -150 16 -10 83 -12 115 -3 27 7 72 88 76 135 3 30 0 34 -22 37 -14 1 -44 -7 -68 -19z"/> <path d="M2600 3573 c0 -10 8 -47 18 -83 l19 -65 68 -3 c100 -4 106 1 59 49 -45 47 -138 119 -154 119 -5 0 -10 -8 -10 -17z"/> <path d="M3383 3563 c-33 -18 -189 -163 -497 -460 l-168 -163 60 -68 c120 -135 211 -168 315 -115 16 8 110 93 210 190 100 96 196 182 213 191 42 19 99 9 129 -24 l24 -25 6 46 c4 25 5 103 3 173 -3 104 -8 134 -25 167 -25 48 -58 80 -96 94 -44 17 -138 13 -174 -6z"/> <path d="M2764 3362 c-91 -59 -90 -56 -59 -164 14 -51 28 -99 31 -106 7 -23 -12 -10 -94 65 l-79 71 -44 -25 c-24 -15 -46 -28 -48 -29 -2 -2 9 -14 25 -26 16 -12 66 -58 111 -101 l82 -79 68 93 c37 51 91 125 120 164 l51 70 -32 39 c-58 70 -64 72 -132 28z"/> <path d="M2346 3381 c-4 -5 -9 -71 -12 -148 l-6 -138 49 50 c28 28 57 71 68 98 l18 48 -39 40 c-45 47 -70 63 -78 50z"/> <path d="M2378 3093 c-41 -25 -49 -55 -59 -213 -19 -311 -13 -356 58 -425 77 -75 195 -71 279 10 53 50 61 82 70 258 l7 139 -109 109 c-60 61 -121 117 -136 125 -35 18 -77 17 -110 -3z"/> <path d="M3524 3090 c-12 -4 -74 -59 -138 -121 l-118 -113 4 -161 c4 -173 10 -195 65 -247 96 -92 243 -71 318 46 19 29 20 48 20 281 0 276 -2 286 -60 311 -38 16 -60 17 -91 4z"/> </g> </svg>