<svg width="600" height="600" xmlns="http://www.w3.org/2000/svg" stroke="null" style="vector-effect: non-scaling-stroke;" preserveAspectRatio="xMidYMid meet" version="1.0">

 <g stroke="null">
  <title stroke="null">Layer 1</title>
  <g stroke="null" id="svg_1" fill="#ffffff" transform="translate(0 3) translate(0 600) scale(0.1 -0.1)">
   <path stroke="null" id="svg_2" d="m721.54163,5039.37109c-306.78144,-129.61882 -570.95435,-464.46744 -430.34619,-540.07842c68.17365,-36.00523 353.65083,-43.20627 489.99813,-10.80157c115.04304,25.20366 306.78144,316.846 323.82485,486.07058c12.78256,108.01568 0,122.41777 -93.73877,133.21934c-59.65195,3.60052 -187.47755,-25.20366 -289.73803,-68.40993z"/>
   <path stroke="null" id="svg_3" d="m1309.53939,5017.76795c0,-36.00523 34.08683,-169.22457 76.69536,-298.84339l80.95621,-234.03398l289.73803,-10.80157c426.08533,-14.40209 451.65045,3.60052 251.39035,176.42562c-191.7384,169.22457 -587.99776,428.46221 -656.17141,428.46221c-21.30427,0 -42.60853,-28.80418 -42.60853,-61.20889z"/>
   <path stroke="null" id="svg_4" d="m4645.78755,4981.76272c-140.60816,-64.80941 -805.30128,-586.88521 -2117.6441,-1656.24048l-715.82336,-586.88521l255.6512,-244.83555c511.3024,-486.07058 899.04005,-604.88783 1342.1688,-414.06012c68.17365,28.80418 468.69387,334.84862 894.7792,684.09933c426.08533,345.65019 835.12725,655.29515 907.56176,687.69985c178.95584,68.40993 421.82448,32.40471 549.65008,-86.41255l102.26048,-90.01307l25.56512,165.62405c17.04341,90.01307 21.30427,370.85385 12.78256,622.89044c-12.78256,374.45437 -34.08683,482.47005 -106.52133,601.2873c-106.52133,172.82509 -247.12949,288.04182 -409.04192,338.44914c-187.47755,61.20889 -587.99776,46.8068 -741.38848,-21.60314z"/>
   <path stroke="null" id="svg_5" d="m2008.31934,4258.05764c-387.73765,-212.43084 -383.4768,-201.62928 -251.39035,-590.48574c59.65195,-183.62666 119.30389,-356.45176 132.08645,-381.65541c29.82597,-82.81202 -51.13024,-36.00523 -400.52021,234.03398l-336.60741,255.63712l-187.47755,-90.01307c-102.26048,-54.00784 -195.99925,-100.81464 -204.52096,-104.41516c-8.52171,-7.20105 38.34768,-50.40732 106.52133,-93.61359c68.17365,-43.20627 281.21632,-208.83032 472.95472,-363.6528l349.38997,-284.4413l289.73803,334.84862c157.65157,183.62666 387.73765,450.06535 511.3024,590.48574l217.30352,252.03659l-136.34731,140.42039c-247.12949,252.03659 -272.69461,259.23764 -562.43264,100.81464z"/>
   <path stroke="null" id="svg_6" d="m227.28265,4326.46757c-17.04341,-18.00261 -38.34768,-255.63712 -51.13024,-532.87737l-25.56512,-496.87214l208.78181,180.02614c119.30389,100.81464 242.86864,255.63712 289.73803,352.85123l76.69536,172.82509l-166.17328,144.02091c-191.7384,169.22457 -298.25973,226.83294 -332.34656,180.02614z"/>
   <path stroke="null" id="svg_7" d="m363.62996,3289.51701c-174.69499,-90.01307 -208.78181,-198.02875 -251.39035,-766.91135c-80.95621,-1119.76259 -55.39109,-1281.78611 247.12949,-1530.22218c328.08571,-270.03921 830.8664,-255.63712 1188.77808,36.00523c225.82523,180.02614 259.91205,295.24287 298.25973,928.93488l29.82597,500.47267l-464.43301,392.45698c-255.6512,219.63189 -515.56325,421.26117 -579.47605,450.06535c-149.12987,64.80941 -328.08571,61.20889 -468.69387,-10.80157z"/>
   <path stroke="null" id="svg_8" d="m5246.56786,3278.71545c-51.13024,-14.40209 -315.30315,-212.43084 -587.99776,-435.66326l-502.78069,-406.85907l17.04341,-579.68417c17.04341,-622.89044 42.60853,-702.10194 276.95547,-889.32913c409.04192,-331.2481 1035.38736,-255.63712 1354.95136,165.62405c80.95621,104.41516 85.21707,172.82509 85.21707,1011.7469c0,993.74429 -8.52171,1029.74952 -255.6512,1119.76259c-161.91243,57.60836 -255.6512,61.20889 -387.73765,14.40209z"/>
  </g>
 </g>
</svg>